<svg xmlns="http://www.w3.org/2000/svg" width="587" height="269" viewBox="0 0 587.1 268.8"><style type="text/css">  
	.st0{fill-rule:evenodd;clip-rule:evenodd;fill:#545454;}
	.st1{fill-rule:evenodd;clip-rule:evenodd;fill:#555555;}
	.st2{fill-rule:evenodd;clip-rule:evenodd;fill:#565656;}
	.st3{fill-rule:evenodd;clip-rule:evenodd;fill:#575757;}
	.st4{fill-rule:evenodd;clip-rule:evenodd;fill:#F7F7F7;}
	.st5{fill-rule:evenodd;clip-rule:evenodd;fill:#FAFAFA;}
	.st6{fill-rule:evenodd;clip-rule:evenodd;fill:#FBFBFB;}
	.st7{fill-rule:evenodd;clip-rule:evenodd;fill:#FCFCFC;}
	.st8{fill-rule:evenodd;clip-rule:evenodd;fill:#FDFDFD;}
	.st9{fill-rule:evenodd;clip-rule:evenodd;fill:#FEFEFE;}
</style><path class="st9" d="M497.6 100.3c-2.1 4.2-4.3 4.6-8.2 1.5 -7.5-5.8-16.3-6.3-25.2-4 -7.5 2-12 8-12.3 15.7 -0.3 8.7 2.7 13.1 10.9 16.4 6 2.3 12.3 2.7 18.5 3.7 13.4 2.3 21 10.1 21.1 22.4 0.2 12.1-7.8 21.5-20.6 23.7 -13 2.3-25.2 0.9-35.7-8.1 -1.4-1.2-3.6-2.2-1-4.6 1.9-1.8 3-2.9 5.5-0.5 8.8 8.2 19.4 9.6 30.8 7.2 10.8-2.4 16.3-11.6 13.7-22.2 -1.4-5.8-5.1-9.4-10.7-10.6 -5.7-1.3-11.4-2.2-17.2-3.1 -14.3-2.2-22.3-10.7-22.1-23.2 0.3-13.2 9.2-22.4 23.5-23.6C479.5 90 489.4 92.7 497.6 100.3z"/><path class="st7" d="M395 10.8c0 15.9 0 31.9-0.1 47.8 0 1.6 1.5 4.3-2 4.5 -3.8 0.2-2.7-2.6-2.7-4.5 -0.1-17-0.1-34 0.1-50.9 0-2.3-2-5.6 1.6-6.9 3.7-1.2 4.7 2.2 6.2 4.5 10 14.9 19.9 29.9 29.9 44.8 0.7 1 1.4 2.1 3 4.3 0-9.5 0-17.5 0-25.6 0-8.2 0-16.3 0-24.5 0-1.7-0.6-3.7 2.5-3.7 3.2 0 2.3 2.1 2.3 3.7 0 18.3 0 36.6 0 54.9 0 1.3 1 3.3-1.2 3.7 -2 0.4-3.8 0.2-5.1-2 -2.1-3.6-4.5-7-6.8-10.4 -8.9-13.4-17.8-26.8-26.7-40.2C395.7 10.5 395.3 10.7 395 10.8z"/><path class="st8" d="M458.7 31.8c0-9 0.1-18-0.1-27 -0.1-3.1 0.5-4.3 4-4.2 10.1 0.3 20.3 0.1 30.5 0.1 1.4 0 3.5-0.9 3.6 2 0.1 2.9-2 2.1-3.5 2.1 -8.7 0.1-17.3 0.2-26 0 -3.1-0.1-4 0.9-3.9 3.9 0.2 5.8 0.2 11.7 0 17.5 -0.1 2.6 0.9 3.5 3.5 3.4 6.7-0.1 13.3-0.2 20 0 1.7 0.1 5-1.7 4.8 2.2 -0.2 3.7-3.3 1.8-5 1.9 -6.5 0.2-13 0.2-19.5 0 -2.6-0.1-3.9 0.4-3.8 3.4 0.2 6.2 0.2 12.3 0 18.5 -0.1 2.8 1 3.3 3.5 3.2 8.7-0.1 17.3-0.1 26 0 1.6 0 4-0.9 3.8 2.3 -0.2 2.8-2.3 1.9-3.7 1.9 -10.3 0.1-20.6 0-31 0.1 -2.7 0-3.4-0.8-3.3-3.4C458.8 50.5 458.7 41.2 458.7 31.8z"/><path class="st7" d="M108.8 63.8c-7.5-0.1-13.6-1.5-18.6-5.9 -1-0.9-3.5-1.4-1.6-3.7 1.6-1.9 2.8-1.6 4.5-0.1 5.8 5.1 12.7 6.2 20.1 4.9 7.2-1.3 11.3-5.8 11.3-12.4 0-6.7-3.5-10.4-11.1-11.7 -3.9-0.7-7.9-1.2-11.8-2.1 -8.6-2-13-7.6-12.9-15.9 0.1-8.4 5.1-14.3 13.5-16.1 7.7-1.7 14.9-0.5 21.3 4.2 1 0.7 3.2 1.2 1.4 3.3 -1.4 1.7-2.5 1.4-4.1 0.1 -5.2-4-11.2-4.9-17.5-3.6C97.6 6 94 10 93.6 15.8c-0.5 6.4 1.7 10 8.1 12 4.4 1.4 9.1 2 13.6 2.9 8.8 1.8 13.6 6.9 13.9 15 0.3 8.5-4.5 14.9-13 17.1C113.4 63.5 110.7 64.1 108.8 63.8z"/><path class="st5" d="M411.7 135.8c0-13.3 0-26.7 0-40 0-2.1-0.7-4.3 3-4.2 3.1 0 3.9 1 3.9 4 -0.1 26.8-0.1 53.7 0 80.5 0 2.5-0.2 3.9-3.4 4 -3.7 0.1-3.4-1.8-3.4-4.3C411.7 162.5 411.7 149.2 411.7 135.8z"/><path class="st8" d="M278.2 4.9c-9.8 0-18.7 0-27.7 0 -1.6 0-3.9 1-3.8-2.3 0.1-2.9 2.3-1.9 3.7-1.9 9.5-0.1 19-0.1 28.5 0 5.4 0 6.1 1.4 3.3 6.2 -2.9 4.9-5.9 9.6-8.9 14.5 -6.8 11.1-13.6 22.1-20.3 33.2 -0.7 1.2-2 2.3-1.9 4.3 9.5 0 18.9 0 28.3 0 1.6 0 4-1 4 2.1 -0.1 3.2-2.6 2-4.1 2 -9.8 0.1-19.7 0.1-29.5 0 -5 0-6.1-1.8-3.6-6.4 1.6-2.9 3.5-5.7 5.2-8.5C260.2 34.1 268.9 19.9 278.2 4.9z"/><path class="st1" d="M295.8 259.7c0-9.6 0-19.3 0-28.9 0-1.7-0.1-3.3 0-5 0.1-1.5-0.6-3.8 2-3.7 2.5 0.1 1.7 2.4 1.8 3.9 0.1 2.2 0 4.3 0 6.5 0 10 0.1 20-0.1 30 0 1.8 1.1 4.4-1.6 5.1 -2.4 0.7-3.4-1.5-4.5-3.2 -6.6-9.8-13.1-19.7-19.7-29.5 -1-1.5-2-3-3.1-4.5 -1.7 1-1 2.5-1 3.7 -0.1 9.5 0 19-0.1 28.5 0 1.8 1.1 4.7-1.8 4.9 -3.1 0.1-2-2.9-2-4.6 -0.1-12.2-0.1-24.3 0-36.5 0-1.5-0.8-3.6 1.4-4.3 2.3-0.8 3.1 1.1 4.2 2.7 7.1 10.8 14.3 21.6 21.5 32.4 0.6 0.9 1.3 1.8 2 2.7C295.2 259.9 295.5 259.8 295.8 259.7z"/><path class="st6" d="M163.9 34.4c0 8.2 0.1 16.3-0.1 24.5 0 1.6 1.5 4.3-2.2 4.3 -3.8 0.1-2.6-2.8-2.6-4.6 -0.1-16.3-0.2-32.6 0.1-48.9 0.1-4.1-1.2-5.1-5-4.8 -3.6 0.3-7.3 0.1-11 0.1 -1.4 0-2.6 0-2.6-2 0-1.8 0.8-2.2 2.4-2.2 12.5 0 25 0 37.4 0 1.7 0 2.4 0.5 2.3 2.3 0 2.1-1.4 1.9-2.7 1.9 -3.8 0-7.7 0.2-11.5-0.1 -3.6-0.3-4.9 0.6-4.8 4.5C164.2 17.7 163.9 26 163.9 34.4z"/><path class="st2" d="M423.1 267.9c-3.6-0.4-9.3 1.9-12.2-0.9 -3.1-3.1-1-8.9-1.1-13.4 -0.2-9 0-18-0.1-27 -0.1-3.3 0.7-4.9 4.4-4.8 6.5 0.2 13 0 19.5 0.1 1.4 0 3.7-0.7 3.7 1.3 0 2.5-2.5 1.6-3.9 1.6 -5.3 0.1-10.7 0.1-16 0 -3.1-0.1-4.4 1.1-4.5 4.3 -0.6 13.7-0.7 13.7 12.9 13.7 1.8 0 3.7 0 5.5 0 1.2 0 2.4 0.3 2.4 1.9 0 1.6-1.2 1.8-2.4 1.8 -4.7 0-9.3 0.2-14 0 -3.3-0.1-4.3 1.1-4.3 4.3 -0.3 13.8-0.4 13.8 13.3 13.8 2.7 0 5.3-0.1 8 0 1.2 0 3.2-0.5 3.2 1.4 0.1 2.3-2.1 1.6-3.4 1.7C430.6 268 427.3 267.9 423.1 267.9z"/><path class="st3" d="M351.8 244.9c0-6.3 0.1-12.6 0-19 -0.1-3 1-4.2 4-4.1 6.8 0.2 13.6 0 20.5 0.1 1.2 0 3.1-0.4 3.1 1.5 0 1.8-1.9 1.5-3.1 1.5 -5.7 0-11.3 0.1-17 0 -3.1-0.1-4.4 0.8-4.4 4.2 -0.3 13.9-0.5 13.7 13.2 14 2.5 0 7.2-1.7 7.2 1.6 0 4.1-4.8 1.9-7.3 2 -13.4 0.3-13.2 0.1-13.2 13.5 0 3.8 1.3 4.9 4.9 4.7 5.6-0.2 11.3-0.1 17 0 1.1 0 2.7-0.1 2.7 1.5 0 1.6-1.5 1.6-2.6 1.6 -7.3 0-14.6 0-22 0 -2.9 0-3.1-1.9-3-4C351.8 257.6 351.8 251.3 351.8 244.9z"/><path class="st2" d="M75.7 221.8c3.4-0.5 6.7 1 9.9 2.9 1.1 0.7 2.6 1.4 1.4 3 -1 1.3-2 0.5-3-0.2 -3.2-2.4-6.9-3.1-10.9-2.7 -5.2 0.5-8.8 4-9.2 8.9 -0.3 4.2 2.7 7.8 7.8 8.9 2.6 0.6 5.2 0.8 7.9 1.3 6.3 1 10.9 5.9 11.1 11.7 0.1 5.6-4 10.7-9.8 12.3 -6.5 1.8-12.5 0.8-18.1-2.8 -1.1-0.7-3.5-1.6-1.8-3.8 1.5-1.9 2.6 0 3.6 0.8 4.6 3.6 10.1 3.5 15.3 2.4 3.9-0.8 6.7-3.5 6.9-8 0.2-4.8-2.1-7.6-6.4-8.8 -2.5-0.7-5.2-1.1-7.8-1.6 -9.2-1.8-12.5-5.6-11.8-13.5C61.4 226.1 67.2 221.8 75.7 221.8z"/><path class="st6" d="M301.9 31.9c0-9.2 0-18.3 0-27.5 0-1.7-0.7-3.7 2.4-3.7 3.1-0.1 2.5 1.9 2.5 3.6 0 18.5 0 37 0 55.4 0 1.9 0.3 3.6-2.6 3.5 -2.7-0.1-2.3-1.8-2.3-3.4C301.9 50.5 301.9 41.2 301.9 31.9z"/><path class="st3" d="M323.8 246.3c0-5.7-0.1-11.3 0.1-17 0.1-3.2-0.9-4.6-4.2-4.4 -2.5 0.2-5 0-7.5 0 -1 0-2.1-0.3-1.9-1.7 0.1-1 1-1.2 1.9-1.2 8.8 0 17.6 0 26.5 0 0.8 0 1.7 0.2 1.9 1.2 0.2 1.4-0.9 1.6-1.9 1.7 -2.3 0.1-4.7 0.2-7 0 -3.5-0.2-4.7 1.2-4.7 4.7 0.1 10.3 0 20.6 0 31 0 1 0.1 2 0 3 -0.2 1.5 0.8 3.9-1.7 3.9 -2 0-1.3-2.3-1.4-3.7C323.8 257.9 323.8 252.1 323.8 246.3z"/><path class="st0" d="M111.7 246.1c0-5.5-0.1-11 0-16.5 0.1-3.4-1.2-4.9-4.7-4.7 -2.2 0.2-4.3 0.1-6.5 0 -1.1 0-2.6 0-2.4-1.7 0.2-1.3 1.4-1.3 2.4-1.3 3.7 0 7.3 0 11 0 4.8 0 9.7 0 14.5 0 1 0 2.2 0 2.4 1.3 0.2 1.7-1.3 1.6-2.4 1.7 -0.5 0.1-1 0-1.5 0 -9.7 0.3-9.7 0.3-9.7 9.8 0 9.5 0 19 0 28.5 0 1.5 0.8 4.1-1.4 4.1 -2.8 0-1.6-2.8-1.7-4.3C111.6 257.4 111.7 251.7 111.7 246.1z"/><path class="st0" d="M47.9 244.7c0 6.5 0 13 0 19.4 0 1.4 0.5 3.4-1.7 3.5 -2.6 0.1-2.1-2.1-2.1-3.6 0-12.8 0-25.6 0-38.4 0-1.4-0.4-3.4 1.8-3.5 2.6-0.1 2.1 2.1 2.1 3.6C47.9 232.1 47.9 238.4 47.9 244.7z"/><path class="st4" d="M564.3 32.9c6.5 0 12.9 0 19.4 0 1.6 0 3.5-0.4 3.4 2.3 -0.1 2.4-1.8 1.9-3.2 1.9 -13.1 0-26.2 0-39.3 0 -1.4 0-3.1 0.3-3.1-2 0-2.7 1.9-2.2 3.5-2.2C551.4 32.9 557.9 32.9 564.3 32.9z"/><path class="st4" d="M25.4 37.2c-6.3 0-12.6 0.1-18.9 0 -1.6 0-4 1-3.9-2.2 0.1-2.8 2.2-2 3.6-2 12.8-0.1 25.5 0 38.3 0 1.5 0 3.6-0.8 3.6 2 0.1 3.2-2.3 2.2-3.9 2.2C38 37.2 31.7 37.2 25.4 37.2z"/><path class="st8" d="M195.5 139.5c7 13.5 13.8 26.6 20.8 39.9 -5 1.5-8 0.6-10.3-4.4 -5-10.7-10.8-21-16-31.6 -1.6-3.3-3.6-4.5-7.3-4.3 -5.1 0.4-10.3 0.2-15.5 0 -2.8-0.1-3.7 0.8-3.7 3.7 0.1 11 0 22 0.1 33 0 2.6-0.1 4.2-3.6 4.3 -3.9 0.1-3.3-2.2-3.3-4.4 0-26.5 0.1-53-0.1-79.5 0-3.9 1.1-4.6 4.7-4.5 9.3 0.3 18.7 0 28 0.1 15.2 0.1 24.2 7.1 26.1 20C217.5 125.2 210.6 134.9 195.5 139.5zM163.6 130.2c-0.1 2.3 0.7 3.2 3.1 3.2 8.7-0.2 17.3 0.2 26-0.4 11-0.7 16.6-7.5 16.2-18.7 -0.3-9.6-6.8-16.1-17.1-16.4 -8.3-0.3-16.7 0-25-0.2 -2.9-0.1-3.3 1.1-3.2 3.5 0.1 4.7 0 9.3 0 14C163.6 120.2 163.7 125.2 163.6 130.2z"/><path class="st9" d="M322.7 135.8c0-13.3 0.1-26.7-0.1-40 0-3.2 0.7-4.3 4-4.2 9.3 0.3 18.7 0 28 0.2 15.3 0.4 25.7 9.9 27.2 25 1.4 14.1 2.2 28.3-1 42.2 -3 12.9-12 20.2-25.3 20.7 -9.8 0.3-19.7 0-29.5 0.2 -3 0.1-3.5-1-3.5-3.7C322.8 162.8 322.7 149.3 322.7 135.8zM329.5 170.3c0 2.7 0.5 3.8 3.5 3.7 7-0.2 14 0.1 21-0.2 11.3-0.5 19.3-7 20.8-17.3 2-13.6 2.1-27.2 0.2-40.8 -1.3-9.1-6.9-14.9-15.9-17 -8.6-2-17.3-0.5-25.9-1 -2.9-0.2-3.6 0.8-3.6 3.6 0.1 11.5 0.1 23 0.1 34.5C329.5 147.3 329.6 158.8 329.5 170.3z"/><path class="st9" d="M584.8 136.2c0.1 7.6 0.8 15.3-0.9 22.9 -2.8 13-15.6 22.2-30.2 21.7 -14.3-0.5-26.3-10.5-28-23.8 -1.7-13.8-1.8-27.6-0.1-41.3 1.8-15.1 14.9-25.4 30.6-24.7 15.7 0.6 27.7 12 28.5 27.2C585.1 124.2 584.8 130.2 584.8 136.2zM532.6 156.4c2.3 11.3 11.5 18.6 23.2 18.3 11.3-0.3 20.6-8.3 21.9-19.4 1.5-12.9 1.5-25.9 0-38.9 -1.3-11.1-10.4-19.1-21.7-19.6 -11.6-0.4-21.1 7-23.4 18.2 -1.4 6.8-0.7 13.6-1.1 20.4C532 142.5 531.2 149.5 532.6 156.4z"/><path class="st9" d="M135.8 179.6c-5.2 1.6-7.5-0.5-8.8-5.1 -1.5-5.2-2.3-12.2-6-14.8 -3.7-2.6-10.6-0.9-16-0.9 -7.2-0.1-14.3 0.1-21.5-0.1 -2.4 0-3.6 0.7-4.3 3 -1.3 4.3-3.3 8.4-4.3 12.7 -1.3 5.1-3.9 6.9-9.2 5.1 5.7-15.5 11.4-31.1 17.2-46.6 4.6-12.6 9.3-25.2 13.9-37.9 0.8-2.1 1.6-3.4 4.1-3.2 2 0.1 3.3 0.4 4.1 2.6 10.2 28.1 20.6 56.1 30.9 84.2C135.9 178.7 135.8 179.1 135.8 179.6zM82.5 152.7c11.7 0 22.7 0 33.7 0 2.2 0 3.1-0.4 2.2-2.8 -5.7-15.9-11.4-31.8-17.5-49.1C94.5 119 88.6 135.6 82.5 152.7z"/><path class="st9" d="M231.6 179.4c4.2-11.5 8.4-23 12.6-34.5 6-16.4 12-32.7 18.1-49.1 0.8-2.1 1-4.3 4.4-4.3 3.2 0 3.8 1.8 4.6 4.1 9.8 26.6 19.6 53.3 29.3 79.9 0.4 1.2 3 3.5-0.2 4.2 -2.2 0.5-5.3 1.4-6.5-2.5 -1.5-4.9-3.6-9.7-5-14.6 -0.9-3-2.1-4.2-5.5-4.1 -11.2 0.2-22.3 0.2-33.5 0 -2.8 0-4.2 0.7-5 3.4 -1.3 4.3-3.3 8.4-4.3 12.7C239.4 179.8 236.6 181 231.6 179.4zM266.3 102.3c-5.6 15.8-11.2 31.6-16.8 47.3 -0.7 1.9-1.1 3.1 1.7 3.1 11.1-0.1 22.2 0 34 0 -6.1-17.1-12-33.8-17.9-50.4C267 102.3 266.6 102.3 266.3 102.3z"/><path class="st8" d="M2.8 135.5c0-13.3 0.1-26.7-0.1-40 0-3 0.6-4 3.8-3.9 9.8 0.2 19.7 0 29.5 0.1 15.4 0.2 25.6 10 25.8 24.6 0.2 15.3-9.5 25.6-25.3 26.2 -7.5 0.3-15 0.2-22.5 0 -3.4-0.1-4.6 0.7-4.5 4.3 0.3 9.7 0 19.3 0.1 29 0 2.8-0.3 4.2-3.7 4.2 -3.4 0-3.2-1.7-3.2-4C2.8 162.5 2.8 149 2.8 135.5zM9.6 133.6c0 1.5-0.1 3.1 2.2 3 9.1-0.3 18.3 0.8 27.4-0.6 11.2-1.7 16.3-8.8 15.7-21 -0.5-10-7.2-16.8-17.7-17.2 -8.1-0.3-16.3 0-24.4-0.2 -2.9-0.1-3.2 1.2-3.2 3.5 0.1 5.3 0 10.6 0 16C9.6 122.6 9.6 128.1 9.6 133.6z"/><path class="st8" d="M370 31.5c-0.4 5.5 0.3 10.9-0.8 16.2 -2.1 9.8-11.2 16.5-21.7 16.1 -10.4-0.5-18.6-7.7-19.7-17.7 -1.1-9.6-1.1-19.3 0.1-28.9 1.2-9.7 9.8-16.8 20.3-17.1 9.8-0.3 18.8 6.3 20.9 15.2C370.3 20.8 369.5 26.3 370 31.5zM364.7 31.9c0-4.3 0.4-8.7-0.1-13 -0.9-8.6-7.1-14.2-15.6-14.4C340.3 4.4 334 9.4 332.7 18c-1.4 9.1-1.3 18.3-0.1 27.4 1.3 9.1 8.4 14.7 17 14.1 8.8-0.6 14.8-6.8 15.3-16C365 39.6 364.8 35.8 364.7 31.9 364.8 31.9 364.8 31.9 364.7 31.9z"/><path class="st8" d="M234.8 62.5c-3.6 1.5-5.2 0.3-6.4-3.1 -4-11.5-4.2-11.4-16.2-11.4 -0.7 0-1.4 0.1-2 0 -10.4-1.8-18 0.5-19.5 12.7 -0.4 3.4-3.1 2.7-5.8 2.1 5.8-15.9 11.6-31.5 17.3-47.2 1.5-4.1 3-8.1 4.5-12.2 0.5-1.5 1.1-2.7 3-2.6 1.8 0 2.5 0.8 3.1 2.5C220.2 22.9 227.5 42.7 234.8 62.5zM216.7 26.1c-2.1-5.8-4.2-11.6-6.8-18.7 -2.5 7-4.6 12.7-6.6 18.4 -2.1 5.9-4.1 11.8-6.2 17.9 8.8 0 17.1 0 25.8 0C220.7 37.6 218.7 31.8 216.7 26.1z"/><path class="st2" d="M492.4 244.7c5 3.1 7.2 7.7 6.3 13.5 -0.9 5.6-5.3 9.4-11.1 9.6 -5.3 0.2-10.7 0-16 0.1 -2.8 0.1-3.8-1-3.8-3.8 0.1-12.8 0.1-25.6 0-38.5 0-2.8 0.9-3.9 3.8-3.8 3.8 0.1 7.7 0.1 11.5 0 6.1 0 11.2 1.7 14.1 7.6C499.4 234.3 497.8 239.3 492.4 244.7zM482 264.8c1.5 0 3 0.1 4.5-0.1 5-0.5 8-3.2 8.4-7.6 0.5-5.6-1.7-10.4-6.4-10.4 -2.7 0-5.2-0.9-7.9-0.9 -8.9 0-8.9 0-8.9 8.7C471.7 264.9 471.7 264.9 482 264.8zM486.7 242.8c4.2-0.6 7.2-3 7.8-7.2 0.6-3.9-0.8-7.5-4.7-9 -2.6-1-5.5-1.4-8.3-1.5 -9.8-0.5-9.8-0.4-9.8 9.3 0.1 9.7-1.1 8.4 8.5 8.5C482.4 242.8 484.6 243 486.7 242.8z"/><path class="st0" d="M552.9 244.7c0-6.3 0.1-12.7 0-19 -0.1-2.8 0.9-3.9 3.8-3.8 4.7 0.1 9.3-0.1 14 0.1 6.8 0.2 11.7 3.9 13 9.6 1.3 5.7-1.2 11.2-7.1 14.4 -2.4 1.3-2.5 2.5-1.3 4.7 2.5 4.5 4.8 9.1 7.1 13.8 0.5 1 2.4 2.2 0.5 3.3 -1.5 0.8-2.9-0.1-3.7-1.6 -1.2-2.4-2.4-4.7-3.7-7.1 -1-1.9-2-3.9-2.9-5.8 -3.1-6.2-6.4-7.6-13.2-6.2 -2.4 0.5-2.3 2-2.3 3.7 0 4.5 0 9 0 13.5 0 1.5 0.5 3.8-2.1 3.6 -2.2-0.1-1.8-2.1-1.8-3.5C552.8 257.7 552.9 251.2 552.9 244.7zM566.5 243.8c1.7 0 3.3 0.1 5-0.1 5.4-0.5 8.3-3.4 8.4-8.6 0.2-5.9-1.9-8.5-7.8-9.4 -2-0.3-3.9-0.8-5.9-0.8 -11.1 0-9.2-1.1-9.4 9.1C556.8 243.8 556.8 243.8 566.5 243.8z"/><path class="st3" d="M11.8 221.9c2.9 0.2 6.4-0.4 9.8 0.7 4.8 1.5 8.4 4.3 9.1 9.5 1 6.4-1.2 11-6.7 13.6 -2.9 1.4-3.1 2.6-1.6 5.2 2.5 4.3 4.8 8.8 7 13.2 0.5 1 2 2.4 0.3 3.4 -1.6 0.9-2.8-0.2-3.5-1.7 -2.8-5.3-5.5-10.6-8.4-15.9 -1.4-2.7-11.2-4.5-13.3-2.4 -1 0.9-0.7 2.2-0.7 3.3 0 4.5 0 9-0.1 13.5 0 1.3 0.6 3.4-1.8 3.3 -1.7 0-2-1.6-2-3 0-13 0-26 0-39 0-2.6 1.5-3.9 4.2-3.7C6.6 222 8.9 221.9 11.8 221.9zM3.9 240.9c0 1.4 0.3 2.8 2.1 2.8 5.1-0.1 10.3 0.9 15.3-0.6 4.4-1.3 7-5 6.4-9.4 -0.6-4.3-2.6-7.5-7.5-8 -2.1-0.2-4.3-0.8-6.4-0.8 -11.8 0.1-9.7-1.4-9.9 8.6C3.9 236.6 3.9 238.8 3.9 240.9z"/><path class="st3" d="M181.8 244.9c0-6.3 0.1-12.6 0-19 -0.1-3 1.1-4.2 4.1-4 5.8 0.4 11.6-0.8 17.4 0.8 4.5 1.2 7.9 3.5 8.6 8.5 1 7.2-0.5 11.6-5.8 14 -3.6 1.6-3.8 3.1-2 6.2 2.5 4.1 4.6 8.4 6.8 12.7 0.5 1 2.1 2.4 0.6 3.4 -1.6 1-3.1 0.1-4-1.7 -1.9-3.9-4.4-7.5-5.8-11.6 -2.2-6.6-6.5-8.3-12.9-7.6 -3.1 0.3-4 1.4-3.9 4.3 0.1 4.5 0.1 9 0 13.5 0 1.2 0.3 3.1-1.6 3 -1.9-0.1-1.5-1.9-1.5-3.2C181.8 257.9 181.8 251.4 181.8 244.9zM200.8 243.7c4.7-0.5 8-4.5 8.1-9.2 0-5-2.4-7.8-7.6-8.7 -2.1-0.4-4.3-0.8-6.4-0.8 -11.3 0-9.9-1-9.9 9.8 0 10.5-1.4 8.9 8.8 9C196.1 243.8 198.5 244 200.8 243.7z"/><path class="st2" d="M167.8 245.4c0 2.3 0.1 4.7 0 7 -0.4 9.3-6.2 15.6-15 16.3 -8 0.7-14.6-5-16.3-14.1 -1.3-7.5-0.9-14.9 0.5-22.3 1-5.5 7.7-10.3 14.3-10.5 7.1-0.2 13.7 4.1 15.5 10.2C168 236.4 167.9 240.9 167.8 245.4zM163.8 237.6c-0.1-7.8-4.5-12.6-11.7-12.8 -6.8-0.2-12.1 5.4-12.3 12.9 -0.1 4.7-0.1 9.3 0 14 0.1 8.5 4.4 13.2 12.1 13.1 7.7 0 11.7-4.3 11.9-12.8 0-2.2 0-4.3 0-6.5C163.8 243 163.9 240.3 163.8 237.6z"/><path class="st3" d="M526.3 256.9c-1.9 0-2.6 0.1-3.3 0 -6-0.9-10.4 0.4-11.3 7.4 -0.1 0.5-0.4 0.9-0.6 1.4 -0.4 1.4-1.1 2.6-2.8 2.1 -2.2-0.7-0.8-2.2-0.5-3.2 4-10.9 8-21.8 12-32.7 0.9-2.5 1.9-5 2.8-7.5 0.4-1.2 1.1-2.1 2.5-2.1 1.5 0 1.9 1.2 2.3 2.3 4.9 13.4 9.9 26.8 14.8 40.2 0.4 1 1.2 2.3-0.4 3 -1.3 0.6-2.2-0.4-2.8-1.4 -0.2-0.3-0.3-0.6-0.4-0.9C537.5 256.8 532.1 255.5 526.3 256.9zM516.3 251.2c-0.8 2.2 0.6 2.6 2.3 2.6 4.3 0 8.6 0 12.9 0 1.9 0 2.8-0.5 2.1-2.6 -2.7-7.6-5.4-15.1-8.6-24C521.8 236.1 519 243.7 516.3 251.2z"/><path class="st3" d="M255.7 266.2c-0.2 0.3-0.3 1.1-0.8 1.3 -0.7 0.4-1.7 0.4-2.3-0.2 -0.5-0.6-0.8-1.4-1.1-2.2 -3.5-8.3-3.5-8.3-12.6-8.3 -1 0-2 0-3 0 -8.3 0-8.3 0-11.5 7.9 -0.6 1.5-0.9 3.8-3.2 2.9 -2.5-1-0.5-3-0.1-4.2 4.6-12.8 9.3-25.6 14.1-38.3 0.5-1.3 0.6-3.1 2.7-3.1 1.8 0 2 1.6 2.5 2.7 5 13.4 9.9 26.8 14.9 40.1C255.4 265.2 255.5 265.5 255.7 266.2zM237.1 229.2c-2.6 7.3-5.2 14.6-7.8 21.8 -0.7 2 0.1 2.8 2.1 2.8 4.3 0 8.6 0 12.9 0 2 0 2.8-0.9 2.1-2.8 -2.6-7.3-5.2-14.5-7.8-21.8C238.1 229.2 237.6 229.2 237.1 229.2z"/></svg>